<mxfile host="app.diagrams.net" modified="2024-05-20T21:59:43.274Z" agent="Mozilla/5.0 (Macintosh; Intel Mac OS X 10_15_7) AppleWebKit/605.1.15 (KHTML, like Gecko) Version/17.4.1 Safari/605.1.15" version="24.4.3" etag="y0IhkV9nvzIA1U2bGsiQ" type="github">
  <diagram name="Page-1" id="KFWrptQ4ymH1qaNON0dJ">
    <mxGraphModel>
      <root>
        <mxCell id="0" />
        <mxCell id="1" parent="0" />
      </root>
    </mxGraphModel>
  </diagram>
</mxfile>
